<svg width="25" height="20" viewBox="0 0 25 20" fill="none" xmlns="http://www.w3.org/2000/svg">
<path fill-rule="evenodd" clip-rule="evenodd" d="M7.86385 13.9748C8.22545 13.6132 8.81171 13.6132 9.17331 13.9748L12.2223 17.0238L15.2713 13.9748C15.6329 13.6132 16.2191 13.6132 16.5807 13.9748C16.9423 14.3364 16.9423 14.9227 16.5807 15.2843L12.877 18.988C12.5154 19.3496 11.9291 19.3496 11.5676 18.988L7.86385 15.2843C7.50225 14.9227 7.50225 14.3364 7.86385 13.9748Z" fill="#006CD8"/>
<path fill-rule="evenodd" clip-rule="evenodd" d="M12.2222 9.07422C12.7336 9.07422 13.1481 9.48877 13.1481 10.0001V18.3335C13.1481 18.8449 12.7336 19.2594 12.2222 19.2594C11.7108 19.2594 11.2963 18.8449 11.2963 18.3335V10.0001C11.2963 9.48877 11.7108 9.07422 12.2222 9.07422Z" fill="#006CD8"/>
<path fill-rule="evenodd" clip-rule="evenodd" d="M9.13663 0.735364C10.3963 0.690063 11.6499 0.931125 12.803 1.4404C13.956 1.94968 14.9785 2.7139 15.7935 3.67553C16.4514 4.45179 16.9602 5.34036 17.2967 6.29632L17.777 6.29632C18.9577 6.29556 20.1086 6.67095 21.0615 7.36806C22.0147 8.06531 22.7208 9.04814 23.0775 10.1739C23.4341 11.2997 23.4228 12.5098 23.0451 13.6287C22.6674 14.7476 21.943 15.717 20.977 16.3963C20.5587 16.6905 19.9812 16.5898 19.687 16.1715C19.3929 15.7532 19.4935 15.1757 19.9118 14.8815C20.5558 14.4287 21.0387 13.7824 21.2905 13.0364C21.5423 12.2905 21.5499 11.4837 21.3121 10.7332C21.0743 9.98272 20.6036 9.3275 19.9682 8.86267C19.3328 8.39783 18.5658 8.14756 17.7785 8.14818H16.6111C16.1883 8.14818 15.8193 7.86186 15.7142 7.45238C15.4705 6.50274 15.0146 5.62075 14.3807 4.87282C13.7469 4.12488 12.9516 3.53049 12.0548 3.13438C11.158 2.73828 10.183 2.55079 9.20318 2.58602C8.22341 2.62125 7.2644 2.8783 6.39834 3.3378C5.53229 3.7973 4.78176 4.44728 4.20325 5.23882C3.62475 6.03035 3.23335 6.94281 3.05852 7.9075C2.88369 8.87219 2.92999 9.86398 3.19392 10.8082C3.45785 11.7524 3.93255 12.6244 4.58227 13.3586C4.92116 13.7416 4.88544 14.3268 4.50248 14.6657C4.11952 15.0045 3.53435 14.9688 3.19546 14.5859C2.3601 13.6419 1.74978 12.5207 1.41044 11.3067C1.07109 10.0927 1.01157 8.81759 1.23635 7.57727C1.46114 6.33696 1.96436 5.16379 2.70815 4.14611C3.45194 3.12842 4.41691 2.29272 5.53041 1.70194C6.64391 1.11115 7.87692 0.780665 9.13663 0.735364Z" fill="#006CD8"/>
</svg>
