<svg width="25" height="20" viewBox="0 0 25 20" fill="none" xmlns="http://www.w3.org/2000/svg">
<path fill-rule="evenodd" clip-rule="evenodd" d="M7.2712 10.7707C7.63279 10.4091 8.21906 10.4091 8.58065 10.7707L9.90112 11.9004L13.462 8.2712C13.8236 7.9096 14.4099 7.9096 14.7715 8.2712C15.1331 8.63279 15.1331 9.21906 14.7715 9.58065L10.5558 13.8645C10.1942 14.2261 9.60799 14.2261 9.24639 13.8645L7.2712 12.0802C6.9096 11.7186 6.9096 11.1323 7.2712 10.7707Z" fill="#C7C7C7"/>
<path fill-rule="evenodd" clip-rule="evenodd" d="M16.1855 15.9259C16.1855 16.4373 15.771 16.8519 15.2596 16.8519L6.92629 16.8519C6.41491 16.8519 6.00036 16.4373 6.00036 15.9259C6.00036 15.4146 6.41491 15 6.92629 15L15.2596 15C15.771 15 16.1855 15.4146 16.1855 15.9259Z" fill="#C7C7C7"/>
<path fill-rule="evenodd" clip-rule="evenodd" d="M9.13663 0.735364C10.3963 0.690063 11.6499 0.931125 12.803 1.4404C13.956 1.94968 14.9785 2.7139 15.7935 3.67553C16.4514 4.45179 16.9602 5.34036 17.2967 6.29632L17.777 6.29632C18.9577 6.29556 20.1086 6.67095 21.0615 7.36806C22.0147 8.06531 22.7208 9.04814 23.0775 10.1739C23.4341 11.2997 23.4228 12.5098 23.0451 13.6287C22.6674 14.7476 21.943 15.717 20.977 16.3963C20.5587 16.6905 19.9812 16.5898 19.687 16.1715C19.3929 15.7532 19.4935 15.1757 19.9118 14.8815C20.5558 14.4287 21.0387 13.7824 21.2905 13.0364C21.5423 12.2905 21.5499 11.4837 21.3121 10.7332C21.0743 9.98272 20.6036 9.3275 19.9682 8.86267C19.3328 8.39783 18.5658 8.14756 17.7785 8.14818H16.6111C16.1883 8.14818 15.8193 7.86186 15.7142 7.45238C15.4705 6.50274 15.0146 5.62075 14.3807 4.87282C13.7469 4.12488 12.9516 3.53049 12.0548 3.13438C11.158 2.73828 10.183 2.55079 9.20318 2.58602C8.22341 2.62125 7.2644 2.8783 6.39834 3.3378C5.53229 3.7973 4.78176 4.44728 4.20325 5.23882C3.62475 6.03035 3.23335 6.94281 3.05852 7.9075C2.88369 8.87219 2.92999 9.86398 3.19392 10.8082C3.45785 11.7524 3.93255 12.6244 4.58227 13.3586C4.92116 13.7416 4.88544 14.3268 4.50248 14.6657C4.11952 15.0045 3.53435 14.9688 3.19546 14.5859C2.3601 13.6419 1.74978 12.5207 1.41044 11.3067C1.07109 10.0927 1.01157 8.81759 1.23635 7.57727C1.46114 6.33696 1.96436 5.16379 2.70815 4.14611C3.45194 3.12842 4.41691 2.29272 5.53041 1.70194C6.64391 1.11115 7.87692 0.780665 9.13663 0.735364Z" fill="#C7C7C7"/>
</svg>
