<svg width="20" height="20" viewBox="0 0 20 20" fill="none" xmlns="http://www.w3.org/2000/svg">
<path d="M17.6429 16.4487C17.6473 16.442 17.654 16.4353 17.6585 16.4286C19.1205 14.6897 20 12.4487 20 10C20 7.55134 19.1205 5.31027 17.6607 3.57143C17.6562 3.56473 17.6496 3.56027 17.6451 3.55357C17.6205 3.52455 17.5982 3.49777 17.5737 3.47098C17.5647 3.45982 17.5558 3.45089 17.5469 3.43973L17.4554 3.33482L17.4531 3.33259C17.4196 3.29464 17.3839 3.2567 17.3504 3.21875L17.3482 3.21652C17.2768 3.14063 17.2054 3.06473 17.1317 2.99107L17.1295 2.98884L17.0223 2.8817L17.0156 2.875C16.9821 2.84152 16.9487 2.81027 16.9152 2.77902C16.904 2.76786 16.8929 2.7567 16.8795 2.74554C16.8571 2.72321 16.8348 2.70312 16.8125 2.68304C16.8058 2.67634 16.7969 2.66964 16.7902 2.66071C15.0089 1.00893 12.6228 0 10 0C7.37723 0 4.99107 1.00893 3.20759 2.66071C3.20089 2.66741 3.19196 2.67411 3.18527 2.68304C3.16295 2.70312 3.14062 2.72545 3.1183 2.74777C3.10714 2.75893 3.09598 2.77009 3.08259 2.78125C3.04911 2.8125 3.01563 2.84598 2.98214 2.87723L2.97545 2.88393L2.8683 2.99107L2.86607 2.9933C2.79241 3.06696 2.72098 3.14286 2.64955 3.21875L2.64732 3.22098C2.61161 3.25893 2.57812 3.29688 2.54464 3.33482L2.54241 3.33705C2.51116 3.37054 2.47991 3.40625 2.45089 3.44196C2.44196 3.45312 2.43304 3.46205 2.42411 3.47321C2.39955 3.5 2.37723 3.52902 2.35268 3.5558C2.34821 3.5625 2.34152 3.56696 2.33705 3.57366C0.879464 5.31027 0 7.55134 0 10C0 12.4487 0.879464 14.6897 2.33929 16.4286C2.34375 16.4353 2.35045 16.442 2.35491 16.4487L2.42411 16.5312C2.43304 16.5424 2.44196 16.5513 2.45089 16.5625L2.54241 16.6674C2.54241 16.6696 2.54464 16.6696 2.54464 16.6719C2.57812 16.7098 2.61161 16.7478 2.64732 16.7835L2.64955 16.7857C2.72098 16.8616 2.79241 16.9375 2.86384 17.0112L2.86607 17.0134C2.90179 17.0491 2.93527 17.0848 2.97098 17.1183L2.97768 17.125C3.05134 17.1987 3.12723 17.2701 3.20312 17.3393C4.99107 18.9911 7.37723 20 10 20C12.6228 20 15.0089 18.9911 16.7924 17.3393C16.8685 17.2696 16.9429 17.1981 17.0156 17.125L17.0223 17.1183C17.058 17.0826 17.0938 17.0491 17.1272 17.0134L17.1295 17.0112C17.2031 16.9375 17.2746 16.8616 17.3438 16.7857L17.346 16.7835C17.3795 16.7455 17.4152 16.7098 17.4487 16.6719C17.4487 16.6696 17.4509 16.6696 17.4509 16.6674C17.4821 16.6339 17.5134 16.5982 17.5424 16.5625C17.5513 16.5513 17.5603 16.5424 17.5692 16.5312C17.5944 16.5043 17.619 16.4768 17.6429 16.4487ZM17.7344 13.2656C17.4263 13.9933 17.0201 14.6674 16.5246 15.279C15.9665 14.7967 15.3563 14.3782 14.7054 14.0312C14.9643 12.9844 15.125 11.8348 15.1674 10.625H18.3705C18.3036 11.5379 18.0893 12.4241 17.7344 13.2656ZM18.3705 9.375H15.1674C15.125 8.16518 14.9643 7.01562 14.7054 5.96875C15.3594 5.62054 15.9688 5.20089 16.5246 4.72098C17.6017 6.04682 18.2461 7.67129 18.3705 9.375ZM13.2656 2.26562C14.1518 2.64062 14.9576 3.15848 15.6674 3.81027C15.2551 4.16137 14.8112 4.4737 14.3415 4.7433C13.9911 3.73884 13.5424 2.86607 13.0201 2.16741C13.1027 2.19866 13.1853 2.23214 13.2656 2.26562ZM11.2433 17.904C11.0379 18.0647 10.8326 18.1875 10.625 18.2701V14.1295C11.5107 14.1913 12.3817 14.3885 13.2076 14.7143C13.0223 15.2634 12.808 15.7701 12.5603 16.2277C12.1719 16.9509 11.7165 17.529 11.2433 17.904ZM12.5603 3.77232C12.8058 4.23214 13.0223 4.73884 13.2076 5.28571C12.3817 5.61151 11.5107 5.80874 10.625 5.87054V1.73214C10.8304 1.81473 11.0379 1.93527 11.2433 2.09821C11.7165 2.47098 12.1719 3.04911 12.5603 3.77232ZM10.625 12.8772V10.625H13.9174C13.8817 11.6116 13.7589 12.5692 13.5536 13.4777L13.5469 13.5045C12.6101 13.1492 11.625 12.9378 10.625 12.8772ZM10.625 9.375V7.12277C11.6473 7.06027 12.6295 6.84375 13.5469 6.49554L13.5536 6.52232C13.7589 7.4308 13.8817 8.38616 13.9174 9.375H10.625ZM9.375 10.625V12.8772C8.35268 12.9397 7.37054 13.1562 6.45313 13.5045L6.44643 13.4777C6.24107 12.5692 6.1183 11.6138 6.08259 10.625H9.375ZM6.08259 9.375C6.1183 8.38839 6.24107 7.4308 6.44643 6.52232L6.45313 6.49554C7.37054 6.84375 8.35045 7.06027 9.375 7.12277V9.375H6.08259ZM9.375 14.1295V18.2679C9.16964 18.1853 8.96205 18.0647 8.7567 17.9018C8.28348 17.529 7.82589 16.9487 7.4375 16.2254C7.19196 15.7656 6.97545 15.2589 6.79018 14.7121C7.62054 14.3862 8.48438 14.192 9.375 14.1295ZM9.375 5.87054C8.48931 5.80874 7.61832 5.61151 6.79241 5.28571C6.97768 4.73661 7.19196 4.22991 7.43973 3.77232C7.82812 3.04911 8.28348 2.46875 8.75893 2.09598C8.96429 1.93527 9.16964 1.8125 9.37723 1.72991V5.87054H9.375ZM6.73438 2.26562C6.81696 2.23214 6.89732 2.19866 6.97991 2.16741C6.45759 2.86607 6.00893 3.73884 5.65848 4.7433C5.18973 4.47545 4.74554 4.16295 4.33259 3.81027C5.04241 3.15848 5.84821 2.64062 6.73438 2.26562ZM2.26562 6.73438C2.57366 6.0067 2.97991 5.33259 3.47545 4.72098C4.03125 5.20089 4.64063 5.62054 5.29464 5.96875C5.03571 7.01562 4.875 8.16518 4.83259 9.375H1.62946C1.69643 8.46205 1.91071 7.57589 2.26562 6.73438ZM1.62946 10.625H4.83259C4.875 11.8348 5.03571 12.9844 5.29464 14.0312C4.64371 14.3782 4.03353 14.7967 3.47545 15.279C2.39828 13.9532 1.75395 12.3287 1.62946 10.625ZM6.73438 17.7344C5.84821 17.3594 5.04241 16.8415 4.33259 16.1897C4.74554 15.8371 5.18973 15.5268 5.65848 15.2567C6.00893 16.2612 6.45759 17.1339 6.97991 17.8326C6.89732 17.8013 6.81473 17.7679 6.73438 17.7344ZM13.2656 17.7344C13.183 17.7679 13.1027 17.8013 13.0201 17.8326C13.5424 17.1339 13.9911 16.2612 14.3415 15.2567C14.8103 15.5246 15.2545 15.8371 15.6674 16.1897C14.9615 16.8388 14.149 17.3613 13.2656 17.7344Z" fill="white"/>
</svg>
